<svg id="Warstwa_1" data-name="Warstwa 1" xmlns="http://www.w3.org/2000/svg" xmlns:xlink="http://www.w3.org/1999/xlink" viewBox="0 0 138.79 137.94"><defs><style>.cls-1{fill:url(#Gradient_bez_nazwy_10);}.cls-2{fill:url(#Gradient_bez_nazwy_11);}.cls-3{fill:url(#Gradient_bez_nazwy_8);}.cls-4{fill:url(#Gradient_bez_nazwy_18);}.cls-5{fill:url(#Gradient_bez_nazwy_16);}.cls-10,.cls-6,.cls-7,.cls-8,.cls-9{stroke:#d57971;stroke-miterlimit:10;stroke-width:0.61px;}.cls-6{fill:url(#Gradient_bez_nazwy_147);}.cls-7{fill:url(#Gradient_bez_nazwy_147-2);}.cls-8{fill:url(#Gradient_bez_nazwy_147-3);}.cls-9{fill:url(#Gradient_bez_nazwy_147-4);}.cls-10{fill:url(#Gradient_bez_nazwy_147-5);}</style><radialGradient id="Gradient_bez_nazwy_10" cx="84.08" cy="-185.93" r="44.37" gradientTransform="matrix(-0.08, -0.87, 1.08, -0.09, 344.1, 163.83)" gradientUnits="userSpaceOnUse"><stop offset="0.39" stop-color="#e49b8e"/><stop offset="0.88" stop-color="#f5b3a6"/></radialGradient><radialGradient id="Gradient_bez_nazwy_11" cx="20.64" cy="72.17" fx="63.95922777731733" r="59.37" gradientTransform="matrix(0.78, -0.4, 0.5, 0.96, 50.45, 94.09)" gradientUnits="userSpaceOnUse"><stop offset="0.32" stop-color="#e49b8e"/><stop offset="0.66" stop-color="#f5b3a6"/></radialGradient><radialGradient id="Gradient_bez_nazwy_8" cx="421.24" cy="44.48" r="53.88" gradientTransform="matrix(0.27, 0.84, -1.13, 0.37, 20.35, -305.01)" gradientUnits="userSpaceOnUse"><stop offset="0.16" stop-color="#e49b8e"/><stop offset="0.61" stop-color="#f5b3a6"/><stop offset="1" stop-color="#ffc1b4"/></radialGradient><radialGradient id="Gradient_bez_nazwy_18" cx="423.9" cy="-109.36" fx="480.8404968450251" fy="-121.65997039723021" r="58.25" gradientTransform="matrix(-0.34, 0.81, -1, -0.42, 79.86, -313.71)" gradientUnits="userSpaceOnUse"><stop offset="0.2" stop-color="#e49b8e"/><stop offset="0.54" stop-color="#ffc1b4"/></radialGradient><radialGradient id="Gradient_bez_nazwy_16" cx="224.81" cy="108.8" r="58.61" gradientTransform="matrix(0.66, 0.58, -0.72, 0.81, -27.36, -83.41)" gradientUnits="userSpaceOnUse"><stop offset="0.29" stop-color="#e49b8e"/><stop offset="0.4" stop-color="#eda89b"/><stop offset="0.55" stop-color="#ffc1b4"/></radialGradient><radialGradient id="Gradient_bez_nazwy_147" cx="16.66" cy="-126.07" r="1.37" gradientTransform="translate(81.76 263.36) scale(0.98 1.25)" gradientUnits="userSpaceOnUse"><stop offset="0" stop-color="#ffc1b4"/><stop offset="0" stop-color="#d57971"/></radialGradient><radialGradient id="Gradient_bez_nazwy_147-2" cx="173.67" cy="-343.72" r="1.37" gradientTransform="matrix(0, -0.98, 1.25, 0, 518.23, 286.28)" xlink:href="#Gradient_bez_nazwy_147"/><radialGradient id="Gradient_bez_nazwy_147-3" cx="360.85" cy="-209.87" r="1.37" gradientTransform="translate(444.24 -167.71) rotate(180) scale(0.98 1.25)" xlink:href="#Gradient_bez_nazwy_147"/><radialGradient id="Gradient_bez_nazwy_147-4" cx="231.93" cy="11.34" r="1.37" gradientTransform="matrix(0, 0.98, -1.25, 0, 93.06, -130.59)" xlink:href="#Gradient_bez_nazwy_147"/><radialGradient id="Gradient_bez_nazwy_147-5" cx="61.4" cy="41.9" r="1.37" gradientTransform="translate(15.56 54.22) scale(0.98 1.25)" xlink:href="#Gradient_bez_nazwy_147"/></defs><path class="cls-1" d="M117.13,82.19C135,69.7,138.22,65.91,142.56,67.46c7.79,2.79,8.4,19,9.05,36.18.67,17.72,1.32,34.86-6.43,38.2-4.72,2-8.51-2.8-29.85-16.39-20.83-13.27-26.86-14.81-27-20C88.14,100,94.53,98,117.13,82.19Z" transform="translate(-13.2 -35.75)"/><path class="cls-2" d="M117.63,123.47c25.8,18.52,27.93,21.78,27.45,25-.43,3-3.05,6-34.29,16.2-33.19,10.85-37.38,9.78-39.58,7.53-3.74-3.85,0-9.52,4.58-33.45,4.68-24.38,3.26-31.14,8.41-33.57C87.55,103.62,91.68,104.84,117.63,123.47Z" transform="translate(-13.2 -35.75)"/><path class="cls-3" d="M113.12,85.63c-18.39,14.2-21.87,20.42-27.29,18.83-5-1.46-5.44-7.73-12.37-30.33-8.36-27.24-12-32-8.79-35.77,5.58-6.54,23.19.3,44.46,8.55,17.23,6.69,28.07,11,28.37,17.7C137.75,70,131,71.8,113.12,85.63Z" transform="translate(-13.2 -35.75)"/><path class="cls-4" d="M52.33,106c-23.08,3-28.75,5.75-31.77,2.08C16.14,102.76,23,90.64,32.9,73c11-19.6,18-32.19,25.66-31.29,3.71.44,5.22,3.79,17.1,27.91,11.09,22.51,12.94,26,11,29.64C83.85,104.33,77.18,102.78,52.33,106Z" transform="translate(-13.2 -35.75)"/><path class="cls-5" d="M75.1,139.08c-5.39,24.31-5.55,29.49-9.86,31-7.11,2.57-16.71-7.88-30.44-22.83-14.08-15.34-24.32-26.48-21-33.62,2.27-4.82,8.67-3.41,32.47-7.67,24.07-4.31,29.84-8,33.81-4.09C83.84,105.55,81.28,111.22,75.1,139.08Z" transform="translate(-13.2 -35.75)"/><ellipse class="cls-6" cx="98.28" cy="105.81" rx="0.91" ry="1.06" transform="translate(-55.25 104.14) rotate(-60.76)"/><ellipse class="cls-7" cx="88.3" cy="116.31" rx="1.06" ry="0.91" transform="translate(-70.04 64.47) rotate(-46.47)"/><ellipse class="cls-8" cx="91.34" cy="94.71" rx="0.91" ry="1.06" transform="translate(-52.79 72.01) rotate(-51.73)"/><ellipse class="cls-9" cx="78.66" cy="96.31" rx="1.06" ry="0.91" transform="translate(-54.6 28.17) rotate(-35.66)"/><ellipse class="cls-10" cx="75.81" cy="106.87" rx="0.91" ry="1.06" transform="translate(-17.4 -32.64) rotate(-2.29)"/></svg>