<svg id="Warstwa_1" data-name="Warstwa 1" xmlns="http://www.w3.org/2000/svg" xmlns:xlink="http://www.w3.org/1999/xlink" viewBox="0 0 152.28 145.85"><defs><style>.cls-1{fill:url(#Gradient_bez_nazwy_10);}.cls-10,.cls-12,.cls-14,.cls-16,.cls-18,.cls-2,.cls-20,.cls-4,.cls-6,.cls-8{stroke:#d57971;stroke-miterlimit:10;}.cls-12,.cls-14,.cls-16,.cls-18,.cls-2,.cls-4,.cls-6,.cls-8{stroke-width:0.61px;}.cls-2{fill:url(#Gradient_bez_nazwy_147);}.cls-3{fill:url(#Gradient_bez_nazwy_26);}.cls-4{fill:url(#Gradient_bez_nazwy_11);}.cls-5{fill:url(#Gradient_bez_nazwy_8);}.cls-6{fill:url(#Gradient_bez_nazwy_147-2);}.cls-7{fill:url(#Gradient_bez_nazwy_20);}.cls-8{fill:url(#Gradient_bez_nazwy_11-2);}.cls-9{fill:url(#Gradient_bez_nazwy_10-2);}.cls-10{stroke-width:0.62px;fill:url(#Gradient_bez_nazwy_147-3);}.cls-11{fill:url(#Gradient_bez_nazwy_15);}.cls-12{fill:url(#Gradient_bez_nazwy_147-4);}.cls-13{fill:url(#Gradient_bez_nazwy_8-2);}.cls-14{fill:url(#Gradient_bez_nazwy_147-5);}.cls-15{fill:url(#Gradient_bez_nazwy_8-3);}.cls-16{fill:url(#Gradient_bez_nazwy_147-6);}.cls-17{fill:url(#Gradient_bez_nazwy_11-3);}.cls-18{fill:url(#Gradient_bez_nazwy_147-7);}.cls-19{fill:url(#Gradient_bez_nazwy_8-4);}.cls-20{stroke-width:0.64px;fill:url(#Gradient_bez_nazwy_147-8);}</style><radialGradient id="Gradient_bez_nazwy_10" cx="-42.95" cy="-216.88" r="30.51" gradientTransform="matrix(0.45, -0.75, 0.93, 0.56, 357.79, 227.47)" gradientUnits="userSpaceOnUse"><stop offset="0.39" stop-color="#e49b8e"/><stop offset="0.88" stop-color="#f5b3a6"/></radialGradient><radialGradient id="Gradient_bez_nazwy_147" cx="-99.32" cy="-104.04" r="1.37" gradientTransform="translate(198.43 238.61) scale(0.98 1.25)" gradientUnits="userSpaceOnUse"><stop offset="0" stop-color="#ffc1b4"/><stop offset="0" stop-color="#d57971"/></radialGradient><radialGradient id="Gradient_bez_nazwy_26" cx="34.86" cy="69.25" fx="47.35904611319313" r="17.13" gradientTransform="matrix(0.78, -0.4, 0.5, 0.96, 50.45, 94.09)" gradientUnits="userSpaceOnUse"><stop offset="0" stop-color="#e49b8e"/><stop offset="0.97" stop-color="#f5b3a6"/></radialGradient><radialGradient id="Gradient_bez_nazwy_11" cx="166.04" cy="-337.76" r="1.37" gradientTransform="matrix(0, -0.98, 1.25, 0, 521.31, 278.55)" gradientUnits="userSpaceOnUse"><stop offset="0.32" stop-color="#e49b8e"/><stop offset="0.66" stop-color="#f5b3a6"/></radialGradient><radialGradient id="Gradient_bez_nazwy_8" cx="661.55" cy="54.15" r="45.81" gradientTransform="matrix(-0.68, 0.56, -0.75, -0.92, 628.12, -225.81)" gradientUnits="userSpaceOnUse"><stop offset="0.16" stop-color="#e49b8e"/><stop offset="0.61" stop-color="#f5b3a6"/><stop offset="1" stop-color="#ffc1b4"/></radialGradient><radialGradient id="Gradient_bez_nazwy_147-2" cx="487.65" cy="-342.77" r="1.37" gradientTransform="matrix(0, -0.98, 1.25, 0, 542.32, 583.96)" xlink:href="#Gradient_bez_nazwy_147"/><radialGradient id="Gradient_bez_nazwy_20" cx="270.3" cy="45.56" r="42.93" gradientTransform="matrix(0.83, 0.27, -0.33, 1.03, -138.17, 22.85)" gradientUnits="userSpaceOnUse"><stop offset="0" stop-color="#f5b3a6"/><stop offset="1" stop-color="#e49b8e"/></radialGradient><radialGradient id="Gradient_bez_nazwy_11-2" cx="133.89" cy="28.87" r="1.37" gradientTransform="translate(-41.94 73.99) scale(0.98 1.25)" xlink:href="#Gradient_bez_nazwy_11"/><radialGradient id="Gradient_bez_nazwy_10-2" cx="82.85" cy="-354.7" r="30.51" gradientTransform="matrix(-0.91, -0.03, 0.02, -1.08, 189.4, -339)" xlink:href="#Gradient_bez_nazwy_10"/><radialGradient id="Gradient_bez_nazwy_147-3" cx="-91.76" cy="-252" r="1.37" gradientTransform="matrix(-0.12, -1, 1.25, -0.12, 404.02, -32.79)" xlink:href="#Gradient_bez_nazwy_147"/><radialGradient id="Gradient_bez_nazwy_15" cx="-5.95" cy="-109.87" fx="13.65929120816564" r="26.88" gradientTransform="translate(206.31 -20.83) rotate(-139.4) scale(0.88 1.08)" gradientUnits="userSpaceOnUse"><stop offset="0.21" stop-color="#e49b8e"/><stop offset="1" stop-color="#f5b3a6"/></radialGradient><radialGradient id="Gradient_bez_nazwy_147-4" cx="359.49" cy="-313.48" r="1.37" gradientTransform="translate(462.34 -301.38) rotate(180) scale(0.98 1.25)" xlink:href="#Gradient_bez_nazwy_147"/><radialGradient id="Gradient_bez_nazwy_8-2" cx="558.99" cy="216.62" r="45.81" gradientTransform="matrix(0.79, 0.4, -0.54, 1.06, -254.2, -390.3)" xlink:href="#Gradient_bez_nazwy_8"/><radialGradient id="Gradient_bez_nazwy_147-5" cx="600.84" cy="-197.05" r="1.37" gradientTransform="matrix(0, 0.98, -1.25, 0, -158.22, -508.99)" xlink:href="#Gradient_bez_nazwy_147"/><radialGradient id="Gradient_bez_nazwy_8-3" cx="629.15" cy="169.77" r="45.81" gradientTransform="matrix(0.82, -0.33, 0.45, 1.1, -547.63, 122.7)" xlink:href="#Gradient_bez_nazwy_8"/><radialGradient id="Gradient_bez_nazwy_147-6" cx="588.52" cy="-262.94" r="1.37" gradientTransform="matrix(0, 0.98, -1.25, 0, -261.38, -480.44)" xlink:href="#Gradient_bez_nazwy_147"/><radialGradient id="Gradient_bez_nazwy_11-3" cx="-53.72" cy="-72.88" fx="-23.137732329751458" r="41.92" gradientTransform="matrix(-0.5, 0.72, -0.89, -0.62, -42.5, 52.05)" xlink:href="#Gradient_bez_nazwy_11"/><radialGradient id="Gradient_bez_nazwy_147-7" cx="344.27" cy="-349.96" r="1.37" gradientTransform="matrix(0, 0.98, -1.25, 0, -361.59, -248.64)" xlink:href="#Gradient_bez_nazwy_147"/><radialGradient id="Gradient_bez_nazwy_8-4" cx="877.28" cy="-188.91" r="48.07" gradientTransform="matrix(0.31, -0.83, 1.11, 0.42, -1.77, 932.63)" xlink:href="#Gradient_bez_nazwy_8"/><radialGradient id="Gradient_bez_nazwy_147-8" cx="350.31" cy="-598.15" r="1.43" gradientTransform="translate(-268.04 853.66) scale(0.98 1.25)" xlink:href="#Gradient_bez_nazwy_147"/></defs><path class="cls-1" d="M134.51,113c20.89,5.66,26,7.49,27.1,11.79.69,2.58-.44,4.51-9.59,17.86-12.61,18.43-13.94,19.84-16.36,20.08-6.47.64-12.07-8.17-23-25.81-10.48-16.9-16.09-25.95-12.89-30C101.31,105,104.4,104.86,134.51,113Z" transform="translate(-12.94 -27.08)"/><ellipse class="cls-2" cx="101.61" cy="108.63" rx="0.91" ry="1.06" transform="translate(-49.11 25.52) rotate(-24.78)"/><path class="cls-3" d="M117.37,127.63c17.71,17.72,22.86,21.72,21.57,26.74-1.12,4.36-7.41,6.62-20,11.14-15.84,5.7-23.76,8.54-28.29,5-4.24-3.35-2.14-9.13-1.22-31.29,1-24-.86-31.59,2.92-33.15C95.64,104.67,99.26,109.5,117.37,127.63Z" transform="translate(-12.94 -27.08)"/><ellipse class="cls-4" cx="98.85" cy="116.03" rx="1.06" ry="0.91" transform="translate(-66.3 80.7) rotate(-46.47)"/><path class="cls-5" d="M131.2,119.22c-20.85-9-28.71-10-28.69-13.69,0-3.25,6.07-4.54,26.39-12.46,23.42-9.13,28.94-12.71,33.11-9.56,4,3,3.5,9.65,2.58,23-.89,12.76-1.34,19.29-5.73,21.9C154.25,131.11,149.39,127.11,131.2,119.22Z" transform="translate(-12.94 -27.08)"/><ellipse class="cls-6" cx="113.59" cy="107.15" rx="1.06" ry="0.91" transform="matrix(0.29, -0.96, 0.96, 0.29, -35.19, 157.1)"/><path class="cls-7" d="M94.21,140c-.56,26.12-1.91,30.82-5.34,32.44s-6-.95-21.1-8.67c-20-10.19-24.48-10.5-25.37-14.82-.8-3.9,2.14-7.17,21.18-24.41,21.71-19.65,24.84-21.69,27.55-20.5C93,104.9,94.9,107.36,94.21,140Z" transform="translate(-12.94 -27.08)"/><ellipse class="cls-8" cx="89.15" cy="110.34" rx="0.91" ry="1.06" transform="translate(-52.16 22.91) rotate(-25.88)"/><path class="cls-9" d="M86.44,58c-5.77-21-6.77-26.35-3.51-29.45,1.95-1.86,4.27-1.82,21-.39,23,2,25,2.46,26.47,4.46,3.93,5.33-1.05,14.54-11.16,32.75-9.69,17.44-14.87,26.78-20.17,26C96.47,90.91,94.77,88.26,86.44,58Z" transform="translate(-12.94 -27.08)"/><ellipse class="cls-10" cx="99.6" cy="88.84" rx="1.06" ry="0.94" transform="translate(-45.93 76.98) rotate(-48.28)"/><path class="cls-11" d="M114.61,69.19c9.82-23,11.61-29.32,16.74-30,4.46-.59,8.91,4.4,17.81,14.39C160.37,66.15,166,72.43,164.34,78c-1.53,5.18-7.67,5.4-28.57,12.83-22.67,8-29,12.61-31.84,9.68C101.44,97.93,104.57,92.77,114.61,69.19Z" transform="translate(-12.94 -27.08)"/><ellipse class="cls-12" cx="110.78" cy="90.7" rx="0.91" ry="1.06" transform="translate(-27.25 133.27) rotate(-68.42)"/><path class="cls-13" d="M92.16,57.46c0,22.73,2.35,30.31-1,31.78-3,1.29-6.59-3.75-22-19.2-17.74-17.81-23.22-21.43-22-26.52,1.15-4.83,7.44-7.07,20-11.56,12-4.3,18.21-6.49,22.36-3.51C93.84,31.58,92.12,37.63,92.16,57.46Z" transform="translate(-12.94 -27.08)"/><ellipse class="cls-14" cx="88.16" cy="78.43" rx="1.06" ry="0.91" transform="translate(-21.23 -16.63) rotate(-6.48)"/><path class="cls-15" d="M54.19,78.21C71.43,93,78.66,96.24,77.55,99.77c-1,3.1-7.14,2.54-28.9,4.1-25.07,1.79-31.4,3.57-34.46-.67-2.9-4-.48-10.25,4.34-22.71,4.62-11.93,7-18,12-19.22C35.69,60,39.14,65.28,54.19,78.21Z" transform="translate(-12.94 -27.08)"/><ellipse class="cls-16" cx="67.44" cy="94.94" rx="1.06" ry="0.91" transform="matrix(0.56, -0.83, 0.83, 0.56, -61.94, 70.03)"/><path class="cls-17" d="M54.36,86.37C30.46,78.89,24,77.73,22.85,72.7c-1-4.39,3.49-9.31,12.55-19.16C46.79,41.14,52.49,35,58.16,36c5.31,1,6.13,7.09,15.6,27.15C84,84.92,89.19,90.75,86.56,93.89,84.27,96.62,78.82,94,54.36,86.37Z" transform="translate(-12.94 -27.08)"/><ellipse class="cls-18" cx="76.15" cy="88.05" rx="1.06" ry="0.91" transform="translate(-42.32 110.12) rotate(-74.12)"/><path class="cls-19" d="M52.22,103.65c23.69-2.74,31.32-6,33.26-2.65,1.69,3-3.13,7.31-17.43,25.19C51.57,146.79,48.44,152.94,43,152.27c-5.16-.63-8.25-6.93-14.41-19.52-5.9-12.06-8.92-18.23-6.3-22.9C25,105,31.54,106,52.22,103.65Z" transform="translate(-12.94 -27.08)"/><ellipse class="cls-20" cx="74.56" cy="105.35" rx="0.96" ry="1.11" transform="translate(-34.63 -7.72) rotate(-12.93)"/></svg>