<svg id="Warstwa_1" data-name="Warstwa 1" xmlns="http://www.w3.org/2000/svg" xmlns:xlink="http://www.w3.org/1999/xlink" viewBox="0 0 236.41 223.27"><defs><style>.cls-1{fill:url(#Gradient_bez_nazwy_4);}.cls-2{fill:url(#Gradient_bez_nazwy_162);}.cls-11,.cls-13,.cls-15,.cls-17,.cls-19,.cls-21,.cls-23,.cls-25,.cls-27,.cls-29,.cls-3,.cls-31,.cls-33,.cls-35,.cls-37,.cls-39,.cls-41,.cls-43,.cls-45,.cls-47,.cls-49,.cls-5,.cls-51,.cls-53,.cls-55,.cls-57,.cls-59,.cls-61,.cls-7,.cls-9{stroke:#d57971;stroke-miterlimit:10;}.cls-11,.cls-15,.cls-19,.cls-23,.cls-27,.cls-3,.cls-31,.cls-35,.cls-39,.cls-43,.cls-47,.cls-51,.cls-55,.cls-59,.cls-7{stroke-width:0.4px;}.cls-3{fill:url(#Gradient_bez_nazwy_147);}.cls-4{fill:url(#Gradient_bez_nazwy_163);}.cls-13,.cls-17,.cls-21,.cls-25,.cls-29,.cls-33,.cls-37,.cls-41,.cls-45,.cls-49,.cls-5,.cls-53,.cls-57,.cls-61,.cls-9{stroke-width:0.41px;}.cls-5{fill:url(#Gradient_bez_nazwy_147-2);}.cls-6{fill:url(#Gradient_bez_nazwy_162-2);}.cls-7{fill:url(#Gradient_bez_nazwy_147-3);}.cls-8{fill:url(#Gradient_bez_nazwy_163-2);}.cls-9{fill:url(#Gradient_bez_nazwy_147-4);}.cls-10{fill:url(#Gradient_bez_nazwy_162-3);}.cls-11{fill:url(#Gradient_bez_nazwy_147-5);}.cls-12{fill:url(#Gradient_bez_nazwy_163-3);}.cls-13{fill:url(#Gradient_bez_nazwy_147-6);}.cls-14{fill:url(#Gradient_bez_nazwy_162-4);}.cls-15{fill:url(#Gradient_bez_nazwy_147-7);}.cls-16{fill:url(#Gradient_bez_nazwy_163-4);}.cls-17{fill:url(#Gradient_bez_nazwy_147-8);}.cls-18{fill:url(#Gradient_bez_nazwy_162-5);}.cls-19{fill:url(#Gradient_bez_nazwy_147-9);}.cls-20{fill:url(#Gradient_bez_nazwy_163-5);}.cls-21{fill:url(#Gradient_bez_nazwy_147-10);}.cls-22{fill:url(#Gradient_bez_nazwy_162-6);}.cls-23{fill:url(#Gradient_bez_nazwy_147-11);}.cls-24{fill:url(#Gradient_bez_nazwy_163-6);}.cls-25{fill:url(#Gradient_bez_nazwy_147-12);}.cls-26{fill:url(#Gradient_bez_nazwy_162-7);}.cls-27{fill:url(#Gradient_bez_nazwy_147-13);}.cls-28{fill:url(#Gradient_bez_nazwy_163-7);}.cls-29{fill:url(#Gradient_bez_nazwy_147-14);}.cls-30{fill:url(#Gradient_bez_nazwy_162-8);}.cls-31{fill:url(#Gradient_bez_nazwy_147-15);}.cls-32{fill:url(#Gradient_bez_nazwy_163-8);}.cls-33{fill:url(#Gradient_bez_nazwy_147-16);}.cls-34{fill:url(#Gradient_bez_nazwy_162-9);}.cls-35{fill:url(#Gradient_bez_nazwy_147-17);}.cls-36{fill:url(#Gradient_bez_nazwy_163-9);}.cls-37{fill:url(#Gradient_bez_nazwy_147-18);}.cls-38{fill:url(#Gradient_bez_nazwy_162-10);}.cls-39{fill:url(#Gradient_bez_nazwy_147-19);}.cls-40{fill:url(#Gradient_bez_nazwy_163-10);}.cls-41{fill:url(#Gradient_bez_nazwy_147-20);}.cls-42{fill:url(#Gradient_bez_nazwy_162-11);}.cls-43{fill:url(#Gradient_bez_nazwy_147-21);}.cls-44{fill:url(#Gradient_bez_nazwy_163-11);}.cls-45{fill:url(#Gradient_bez_nazwy_147-22);}.cls-46{fill:url(#Gradient_bez_nazwy_162-12);}.cls-47{fill:url(#Gradient_bez_nazwy_147-23);}.cls-48{fill:url(#Gradient_bez_nazwy_163-12);}.cls-49{fill:url(#Gradient_bez_nazwy_147-24);}.cls-50{fill:url(#Gradient_bez_nazwy_162-13);}.cls-51{fill:url(#Gradient_bez_nazwy_147-25);}.cls-52{fill:url(#Gradient_bez_nazwy_163-13);}.cls-53{fill:url(#Gradient_bez_nazwy_147-26);}.cls-54{fill:url(#Gradient_bez_nazwy_162-14);}.cls-55{fill:url(#Gradient_bez_nazwy_147-27);}.cls-56{fill:url(#Gradient_bez_nazwy_163-14);}.cls-57{fill:url(#Gradient_bez_nazwy_147-28);}.cls-58{fill:url(#Gradient_bez_nazwy_162-15);}.cls-59{fill:url(#Gradient_bez_nazwy_147-29);}.cls-60{fill:url(#Gradient_bez_nazwy_163-15);}.cls-61{fill:url(#Gradient_bez_nazwy_147-30);}</style><radialGradient id="Gradient_bez_nazwy_4" cx="117.15" cy="88.92" r="102.36" gradientUnits="userSpaceOnUse"><stop offset="0.13" stop-color="#da958b"/><stop offset="0.91" stop-color="#c0675d"/></radialGradient><radialGradient id="Gradient_bez_nazwy_162" cx="304.75" cy="158.21" fx="293.05689445341994" r="23.27" gradientTransform="matrix(-0.84, -0.27, 0.28, -1.03, 432.63, 465.32)" gradientUnits="userSpaceOnUse"><stop offset="0.1" stop-color="#d48376"/><stop offset="0.91" stop-color="#ffc1b4"/></radialGradient><radialGradient id="Gradient_bez_nazwy_147" cx="212.28" cy="138.11" r="0.91" gradientTransform="translate(-22.42 -1) scale(0.98 1.25)" gradientUnits="userSpaceOnUse"><stop offset="0" stop-color="#ffc1b4"/><stop offset="0" stop-color="#d57971"/></radialGradient><radialGradient id="Gradient_bez_nazwy_163" cx="121.75" cy="236.53" r="21.26" gradientTransform="translate(36.39 32.09) rotate(-23.59)" gradientUnits="userSpaceOnUse"><stop offset="0.13" stop-color="#d48376"/><stop offset="0.91" stop-color="#ffc1b4"/></radialGradient><radialGradient id="Gradient_bez_nazwy_147-2" cx="346.46" cy="-121.59" r="0.91" gradientTransform="matrix(0, 1.17, -1.09, 0, 116.52, -217.25)" xlink:href="#Gradient_bez_nazwy_147"/><radialGradient id="Gradient_bez_nazwy_162-2" cx="218.72" cy="140.17" fx="207.53740262463407" r="22.26" gradientTransform="matrix(-0.87, -0.11, 0.09, -1.06, 342.24, 295.71)" xlink:href="#Gradient_bez_nazwy_162"/><radialGradient id="Gradient_bez_nazwy_147-3" cx="203.5" cy="107.7" r="0.91" xlink:href="#Gradient_bez_nazwy_147"/><radialGradient id="Gradient_bez_nazwy_163-2" cx="56.47" cy="245.3" r="21.35" xlink:href="#Gradient_bez_nazwy_163"/><radialGradient id="Gradient_bez_nazwy_147-4" cx="353.93" cy="-62.03" r="0.91" gradientTransform="matrix(0, 1.17, -1.09, 0, 125.43, -192.04)" xlink:href="#Gradient_bez_nazwy_147"/><radialGradient id="Gradient_bez_nazwy_162-3" cx="272.86" cy="147.37" fx="261.21754797594576" r="23.17" gradientTransform="matrix(-0.87, -0.11, 0.09, -1.06, 469.27, 355.36)" xlink:href="#Gradient_bez_nazwy_162"/><radialGradient id="Gradient_bez_nazwy_147-5" cx="255.18" cy="110.22" r="0.91" xlink:href="#Gradient_bez_nazwy_147"/><radialGradient id="Gradient_bez_nazwy_163-3" cx="32.87" cy="242" r="21.31" xlink:href="#Gradient_bez_nazwy_163"/><radialGradient id="Gradient_bez_nazwy_147-6" cx="343.7" cy="-33.62" r="0.91" gradientTransform="matrix(0, 1.17, -1.09, 0, 123.24, -178.67)" xlink:href="#Gradient_bez_nazwy_147"/><radialGradient id="Gradient_bez_nazwy_162-4" cx="276.53" cy="30.47" fx="264.84364468039564" r="23.27" gradientTransform="matrix(-0.84, -0.27, 0.28, -1.03, 444.27, 186.33)" xlink:href="#Gradient_bez_nazwy_162"/><radialGradient id="Gradient_bez_nazwy_147-7" cx="212.28" cy="26.03" r="0.91" xlink:href="#Gradient_bez_nazwy_147"/><radialGradient id="Gradient_bez_nazwy_163-4" cx="161" cy="159.16" r="21.26" xlink:href="#Gradient_bez_nazwy_163"/><radialGradient id="Gradient_bez_nazwy_147-8" cx="280.15" cy="-157.66" r="0.91" gradientTransform="matrix(0, 1.17, -1.09, 0, 82.28, -226.5)" xlink:href="#Gradient_bez_nazwy_147"/><radialGradient id="Gradient_bez_nazwy_162-5" cx="275.44" cy="122.01" fx="264.2574685994464" r="22.26" gradientTransform="matrix(-0.87, -0.11, 0.09, -1.06, 443.01, 263.25)" xlink:href="#Gradient_bez_nazwy_162"/><radialGradient id="Gradient_bez_nazwy_147-9" cx="254.35" cy="92.01" r="0.91" xlink:href="#Gradient_bez_nazwy_147"/><radialGradient id="Gradient_bez_nazwy_163-5" cx="128.5" cy="103.01" r="21.35" xlink:href="#Gradient_bez_nazwy_163"/><radialGradient id="Gradient_bez_nazwy_147-10" cx="231.97" cy="-128.22" r="0.91" gradientTransform="matrix(0, 1.17, -1.09, 0, 62.45, -208.97)" xlink:href="#Gradient_bez_nazwy_147"/><radialGradient id="Gradient_bez_nazwy_162-6" cx="50.13" cy="145.38" fx="38.48877141258648" r="23.17" gradientTransform="matrix(-0.87, -0.11, 0.09, -1.06, 80.22, 325.83)" xlink:href="#Gradient_bez_nazwy_162"/><radialGradient id="Gradient_bez_nazwy_147-11" cx="55.49" cy="108.5" r="0.91" xlink:href="#Gradient_bez_nazwy_147"/><radialGradient id="Gradient_bez_nazwy_163-6" cx="101.46" cy="80.24" r="21.31" xlink:href="#Gradient_bez_nazwy_163"/><radialGradient id="Gradient_bez_nazwy_147-12" cx="205.06" cy="-96.65" r="0.91" gradientTransform="matrix(0, 1.17, -1.09, 0, 52.76, -192.6)" xlink:href="#Gradient_bez_nazwy_147"/><radialGradient id="Gradient_bez_nazwy_162-7" cx="133.43" cy="160.15" fx="121.74373076999557" r="23.27" gradientTransform="matrix(-0.84, -0.27, 0.28, -1.03, 140.47, 397.48)" xlink:href="#Gradient_bez_nazwy_162"/><radialGradient id="Gradient_bez_nazwy_147-13" cx="60.71" cy="118.62" r="0.91" xlink:href="#Gradient_bez_nazwy_147"/><radialGradient id="Gradient_bez_nazwy_163-7" cx="143.18" cy="154.78" r="21.26" xlink:href="#Gradient_bez_nazwy_163"/><radialGradient id="Gradient_bez_nazwy_147-14" cx="276.4" cy="-141.28" r="0.91" gradientTransform="matrix(0, 1.17, -1.09, 0, 82.02, -219)" xlink:href="#Gradient_bez_nazwy_147"/><radialGradient id="Gradient_bez_nazwy_162-8" cx="265.07" cy="124.71" fx="253.88892185389886" r="22.26" gradientTransform="matrix(-0.87, -0.11, 0.09, -1.06, 424.64, 267.86)" xlink:href="#Gradient_bez_nazwy_162"/><radialGradient id="Gradient_bez_nazwy_147-15" cx="245.06" cy="94.34" r="0.91" xlink:href="#Gradient_bez_nazwy_147"/><radialGradient id="Gradient_bez_nazwy_163-8" cx="-12.45" cy="204.96" r="21.35" xlink:href="#Gradient_bez_nazwy_163"/><radialGradient id="Gradient_bez_nazwy_147-16" cx="319.35" cy="1.3" r="0.91" gradientTransform="matrix(0, 1.17, -1.09, 0, 115.05, -161.08)" xlink:href="#Gradient_bez_nazwy_147"/><radialGradient id="Gradient_bez_nazwy_162-9" cx="120.58" cy="52.82" fx="108.93840846655053" r="23.17" gradientTransform="matrix(-0.87, -0.11, 0.09, -1.06, 211.73, 135.66)" xlink:href="#Gradient_bez_nazwy_162"/><radialGradient id="Gradient_bez_nazwy_147-17" cx="118.65" cy="28.57" r="0.91" xlink:href="#Gradient_bez_nazwy_147"/><radialGradient id="Gradient_bez_nazwy_163-9" cx="6.5" cy="227.2" r="21.31" xlink:href="#Gradient_bez_nazwy_163"/><radialGradient id="Gradient_bez_nazwy_147-18" cx="331.01" cy="-9.39" r="0.91" gradientTransform="matrix(0, 1.17, -1.09, 0, 119.52, -166.88)" xlink:href="#Gradient_bez_nazwy_147"/><radialGradient id="Gradient_bez_nazwy_162-10" cx="101.92" cy="99.22" fx="90.23194283955704" r="23.27" gradientTransform="matrix(-0.84, -0.27, 0.28, -1.03, 115.32, 256.84)" xlink:href="#Gradient_bez_nazwy_162"/><radialGradient id="Gradient_bez_nazwy_147-19" cx="44.78" cy="62.93" r="0.91" xlink:href="#Gradient_bez_nazwy_147"/><radialGradient id="Gradient_bez_nazwy_163-10" cx="35.77" cy="67.56" r="21.26" xlink:href="#Gradient_bez_nazwy_163"/><radialGradient id="Gradient_bez_nazwy_147-20" cx="201.65" cy="-42.59" r="0.91" gradientTransform="matrix(0, 1.17, -1.09, 0, 56.08, -168.72)" xlink:href="#Gradient_bez_nazwy_147"/><radialGradient id="Gradient_bez_nazwy_162-11" cx="75.75" cy="62.59" fx="64.56856221422433" r="22.26" gradientTransform="matrix(-0.87, -0.11, 0.09, -1.06, 99.44, 113.39)" xlink:href="#Gradient_bez_nazwy_162"/><radialGradient id="Gradient_bez_nazwy_147-21" cx="75.32" cy="40.7" r="0.91" xlink:href="#Gradient_bez_nazwy_147"/><radialGradient id="Gradient_bez_nazwy_163-11" cx="9.39" cy="84.81" r="21.35" xlink:href="#Gradient_bez_nazwy_163"/><radialGradient id="Gradient_bez_nazwy_147-22" cx="216.38" cy="-18.77" r="0.91" gradientTransform="matrix(0, 1.17, -1.09, 0, 65.13, -159.78)" xlink:href="#Gradient_bez_nazwy_147"/><radialGradient id="Gradient_bez_nazwy_162-12" cx="146.97" cy="48.11" fx="135.3310123794052" r="23.17" gradientTransform="matrix(-0.87, -0.11, 0.09, -1.06, 258.28, 128.57)" xlink:href="#Gradient_bez_nazwy_162"/><radialGradient id="Gradient_bez_nazwy_147-23" cx="142.31" cy="24.5" r="0.91" xlink:href="#Gradient_bez_nazwy_147"/><radialGradient id="Gradient_bez_nazwy_163-12" cx="-18.24" cy="128.22" r="21.31" xlink:href="#Gradient_bez_nazwy_163"/><radialGradient id="Gradient_bez_nazwy_147-24" cx="246.18" cy="13.34" r="0.91" gradientTransform="matrix(0, 1.17, -1.09, 0, 81.97, -148.7)" xlink:href="#Gradient_bez_nazwy_147"/><radialGradient id="Gradient_bez_nazwy_162-13" cx="283.61" cy="99.63" fx="271.923192370194" r="23.27" gradientTransform="matrix(-0.84, -0.27, 0.28, -1.03, 424.04, 333.93)" xlink:href="#Gradient_bez_nazwy_162"/><radialGradient id="Gradient_bez_nazwy_147-25" cx="205.05" cy="85.7" r="0.91" xlink:href="#Gradient_bez_nazwy_147"/><radialGradient id="Gradient_bez_nazwy_163-13" cx="78.59" cy="221.46" r="21.26" xlink:href="#Gradient_bez_nazwy_163"/><radialGradient id="Gradient_bez_nazwy_147-26" cx="333.55" cy="-81.94" r="0.91" gradientTransform="matrix(0, 1.17, -1.09, 0, 114.1, -198.72)" xlink:href="#Gradient_bez_nazwy_147"/><radialGradient id="Gradient_bez_nazwy_162-14" cx="235.03" cy="104.76" fx="223.8481030985897" r="22.26" gradientTransform="matrix(-0.87, -0.11, 0.09, -1.06, 373.95, 221.74)" xlink:href="#Gradient_bez_nazwy_162"/><radialGradient id="Gradient_bez_nazwy_147-27" cx="218.12" cy="77.11" r="0.91" xlink:href="#Gradient_bez_nazwy_147"/><radialGradient id="Gradient_bez_nazwy_163-14" cx="99.2" cy="221.83" r="21.35" xlink:href="#Gradient_bez_nazwy_163"/><radialGradient id="Gradient_bez_nazwy_147-28" cx="333.81" cy="-101.29" r="0.91" gradientTransform="matrix(0, 1.17, -1.09, 0, 112.47, -207.18)" xlink:href="#Gradient_bez_nazwy_147"/><radialGradient id="Gradient_bez_nazwy_162-15" cx="194.53" cy="177.9" fx="182.89276114000592" r="23.17" gradientTransform="matrix(-0.87, -0.11, 0.09, -1.06, 329.62, 411.84)" xlink:href="#Gradient_bez_nazwy_162"/><radialGradient id="Gradient_bez_nazwy_147-29" cx="184.95" cy="136.59" r="0.91" xlink:href="#Gradient_bez_nazwy_147"/><radialGradient id="Gradient_bez_nazwy_163-15" cx="130.05" cy="216.21" r="21.31" xlink:href="#Gradient_bez_nazwy_163"/><radialGradient id="Gradient_bez_nazwy_147-30" cx="321.6" cy="-122.92" r="0.91" gradientTransform="matrix(0, 1.17, -1.09, 0, 104.79, -215.41)" xlink:href="#Gradient_bez_nazwy_147"/></defs><ellipse class="cls-1" cx="126.63" cy="111.52" rx="103.25" ry="95.14"/><path class="cls-2" d="M241.31,228.92c-4.37,8.8-6.64,13.25-10.95,15.69a17.59,17.59,0,0,1-11.73,2.15c-9.28-1.89-17.09-13.35-15.07-24.6,2.07-11.59,13.59-17.61,22.68-17.85,7.85-.2,18.09,3.79,19.86,11.05C246.73,218,244.91,221.66,241.31,228.92Z" transform="translate(-33.07 -38.1)"/><ellipse class="cls-3" cx="185.2" cy="171.98" rx="0.61" ry="0.7"/><path class="cls-4" d="M251.15,216.78c-2.11,1.82-6.46,5.57-11.8,4.95-7.76-.9-11.74-11.26-14.55-18.43-2.49-6.35-4.3-11-2.6-16.67.11-.38,2.79-8.89,10.62-11.81,9.69-3.62,21.91,3.31,26.35,13.47C264.13,199.64,257.52,211.29,251.15,216.78Z" transform="translate(-33.07 -38.1)"/><ellipse class="cls-5" cx="248.72" cy="187.2" rx="0.61" ry="0.73" transform="translate(-87.21 77.1) rotate(-23.59)"/><ellipse class="cls-6" cx="167.53" cy="125.33" rx="19.18" ry="21.56"/><ellipse class="cls-7" cx="176.62" cy="133.93" rx="0.61" ry="0.7"/><path class="cls-8" d="M194.72,250.87c-4.09,3.27-6.13,4.91-8.94,5-8.36.24-14.51-12.48-17.41-18.46-2.77-5.73-4.48-9.24-3.77-14a18.7,18.7,0,0,1,11.79-14.47c10.6-3.81,21.84,5.34,26.35,13.48,1,1.84,4,7.3,2.81,13.9C204.25,243.24,199,247.47,194.72,250.87Z" transform="translate(-33.07 -38.1)"/><ellipse class="cls-9" cx="192.81" cy="221.12" rx="0.61" ry="0.73" transform="matrix(0.92, -0.4, 0.4, 0.92, -105.46, 57.55)"/><path class="cls-10" d="M267.72,171.43c.24,1.48,2.26,14.89-6,20.3-5,3.29-11,1.8-13.23,1.26-10.56-2.6-17.14-12.83-19.17-21.56-.79-3.38-3.24-13.88,2.95-19.45,5.47-4.92,14-2.68,16.22-2.11C258.41,152.44,266.08,161.47,267.72,171.43Z" transform="translate(-33.07 -38.1)"/><ellipse class="cls-11" cx="227.12" cy="137.09" rx="0.61" ry="0.7"/><path class="cls-12" d="M172.22,257.8c-1,.71-7.35,5.09-14.24,3-8.69-2.59-11.32-13.29-12.11-16.51-2.06-8.35-1.8-23,8-28.48a17.92,17.92,0,0,1,15.79-.4c7.42,3.41,9.67,10.93,10.55,13.87C183,238.56,181.23,251.55,172.22,257.8Z" transform="translate(-33.07 -38.1)"/><ellipse class="cls-13" cx="159.7" cy="222.56" rx="0.61" ry="0.73" transform="translate(-108.8 44.42) rotate(-23.59)"/><path class="cls-14" d="M241.31,88.67c-4.37,8.8-6.64,13.25-10.95,15.69a17.59,17.59,0,0,1-11.73,2.15c-9.28-1.89-17.09-13.35-15.07-24.6,2.07-11.59,13.59-17.61,22.68-17.85,7.85-.21,18.09,3.79,19.86,11C246.73,77.72,244.91,81.41,241.31,88.67Z" transform="translate(-33.07 -38.1)"/><ellipse class="cls-15" cx="185.2" cy="31.73" rx="0.61" ry="0.7"/><path class="cls-16" d="M256.15,130.17c-2.11,1.81-6.46,5.57-11.8,5-7.76-.9-11.74-11.27-14.55-18.43-2.49-6.36-4.29-11-2.6-16.67.12-.38,2.79-8.89,10.62-11.82,9.69-3.61,21.91,3.32,26.35,13.48C269.13,113,262.52,124.68,256.15,130.17Z" transform="translate(-33.07 -38.1)"/><ellipse class="cls-17" cx="253.72" cy="100.58" rx="0.61" ry="0.73" transform="translate(-52.12 71.86) rotate(-23.59)"/><ellipse class="cls-18" cx="217.23" cy="105.69" rx="19.18" ry="21.56"/><ellipse class="cls-19" cx="226.32" cy="114.3" rx="0.61" ry="0.7"/><path class="cls-20" d="M203.77,91.64c-4.08,3.27-6.12,4.91-8.93,5-8.36.24-14.52-12.48-17.41-18.46-2.78-5.73-4.49-9.24-3.77-14a18.67,18.67,0,0,1,11.79-14.47C196,45.88,207.29,55,211.79,63.16c1,1.84,4.05,7.3,2.82,13.9C213.3,84,208,88.24,203.77,91.64Z" transform="translate(-33.07 -38.1)"/><ellipse class="cls-21" cx="201.86" cy="61.89" rx="0.61" ry="0.73" transform="translate(-40.97 47.87) rotate(-23.59)"/><path class="cls-22" d="M72.57,169.28c.24,1.48,2.26,14.89-5.95,20.29-5,3.3-11.05,1.81-13.23,1.27-10.56-2.6-17.14-12.83-19.17-21.56-.79-3.38-3.24-13.88,3-19.45,5.47-4.92,14-2.69,16.22-2.11C63.26,150.29,70.93,159.32,72.57,169.28Z" transform="translate(-33.07 -38.1)"/><ellipse class="cls-23" cx="31.97" cy="134.93" rx="0.61" ry="0.7"/><path class="cls-24" d="M170.33,82.1c-1,.72-7.35,5.09-14.24,3-8.69-2.58-11.32-13.28-12.11-16.5-2.06-8.36-1.8-23,8-28.49a17.92,17.92,0,0,1,15.79-.4c7.42,3.42,9.67,10.93,10.55,13.88C181.11,62.86,179.34,75.86,170.33,82.1Z" transform="translate(-33.07 -38.1)"/><ellipse class="cls-25" cx="157.81" cy="46.86" rx="0.61" ry="0.73" transform="matrix(0.92, -0.4, 0.4, 0.92, -38.64, 28.98)"/><path class="cls-26" d="M93.19,204.53c-4.37,8.8-6.64,13.25-11,15.69-1.59.9-6.34,3.25-11.73,2.15-9.28-1.89-17.09-13.35-15.07-24.6,2.07-11.59,13.58-17.61,22.67-17.85C86,179.72,96.21,183.71,98,191,98.61,193.59,96.79,197.27,93.19,204.53Z" transform="translate(-33.07 -38.1)"/><ellipse class="cls-27" cx="37.08" cy="147.59" rx="0.61" ry="0.7"/><path class="cls-28" d="M238.07,133.3c-2.11,1.81-6.47,5.57-11.81,4.95-7.75-.9-11.74-11.27-14.54-18.43-2.49-6.36-4.3-11-2.6-16.67.11-.38,2.79-8.89,10.62-11.82,9.68-3.61,21.91,3.32,26.35,13.48C251,116.16,244.44,127.81,238.07,133.3Z" transform="translate(-33.07 -38.1)"/><ellipse class="cls-29" cx="235.64" cy="103.71" rx="0.61" ry="0.73" transform="translate(-54.89 64.88) rotate(-23.59)"/><ellipse class="cls-30" cx="208.15" cy="108.61" rx="19.18" ry="21.56"/><ellipse class="cls-31" cx="217.23" cy="117.21" rx="0.61" ry="0.7"/><path class="cls-32" d="M115.41,241.49c-4.08,3.27-6.12,4.91-8.93,5C98.12,246.72,92,234,89.07,228c-2.78-5.72-4.49-9.23-3.78-14a18.7,18.7,0,0,1,11.8-14.47c10.59-3.81,21.83,5.34,26.34,13.47,1,1.85,4,7.31,2.82,13.91C124.94,233.86,119.66,238.09,115.41,241.49Z" transform="translate(-33.07 -38.1)"/><ellipse class="cls-33" cx="113.5" cy="211.74" rx="0.61" ry="0.73" transform="translate(-108.34 25.03) rotate(-23.59)"/><path class="cls-34" d="M134.3,69.25c.24,1.47,2.26,14.88-6,20.29-5,3.3-11.06,1.81-13.23,1.27C104.56,88.2,98,78,95.94,69.25c-.78-3.38-3.23-13.88,3-19.45,5.47-4.92,14-2.69,16.22-2.12C125,50.26,132.66,59.28,134.3,69.25Z" transform="translate(-33.07 -38.1)"/><ellipse class="cls-35" cx="93.69" cy="34.9" rx="0.61" ry="0.7"/><path class="cls-36" d="M142.12,254.79c-1,.71-7.34,5.08-14.24,3-8.68-2.59-11.31-13.29-12.1-16.51-2.06-8.36-1.8-23,8-28.49a17.86,17.86,0,0,1,15.78-.39c7.43,3.41,9.68,10.93,10.56,13.87C152.91,235.54,151.14,248.54,142.12,254.79Z" transform="translate(-33.07 -38.1)"/><ellipse class="cls-37" cx="129.61" cy="219.55" rx="0.61" ry="0.73" transform="translate(-110.11 32.13) rotate(-23.59)"/><path class="cls-38" d="M77.62,134.85c-4.37,8.8-6.64,13.25-11,15.69-1.59.9-6.34,3.25-11.73,2.15-9.29-1.89-17.09-13.35-15.07-24.6,2.07-11.59,13.58-17.61,22.67-17.85,7.86-.21,18.09,3.79,19.86,11C83,123.9,81.22,127.59,77.62,134.85Z" transform="translate(-33.07 -38.1)"/><ellipse class="cls-39" cx="21.5" cy="77.91" rx="0.61" ry="0.7"/><path class="cls-40" d="M104.73,96.36c-2.11,1.82-6.46,5.57-11.8,5-7.76-.9-11.74-11.27-14.55-18.43-2.49-6.36-4.3-11-2.6-16.67.11-.38,2.79-8.89,10.62-11.82,9.69-3.61,21.91,3.32,26.35,13.48C117.71,79.22,111.1,90.87,104.73,96.36Z" transform="translate(-33.07 -38.1)"/><ellipse class="cls-41" cx="102.3" cy="66.77" rx="0.61" ry="0.73" transform="translate(-51.25 8.43) rotate(-23.59)"/><ellipse class="cls-42" cx="42.27" cy="41.48" rx="19.18" ry="21.56"/><ellipse class="cls-43" cx="51.35" cy="50.08" rx="0.61" ry="0.7"/><path class="cls-44" d="M87.34,122.64c-4.09,3.27-6.13,4.91-8.94,5C70,127.87,63.89,115.15,61,109.17c-2.77-5.73-4.48-9.24-3.77-14A18.7,18.7,0,0,1,69,80.68c10.6-3.8,21.84,5.34,26.35,13.48,1,1.84,4,7.3,2.81,13.9C96.87,115,91.58,119.24,87.34,122.64Z" transform="translate(-33.07 -38.1)"/><ellipse class="cls-45" cx="85.43" cy="92.89" rx="0.61" ry="0.73" transform="translate(-63.11 3.86) rotate(-23.59)"/><path class="cls-46" d="M157.42,64.15c.24,1.48,2.26,14.89-5.95,20.3-5,3.29-11.05,1.8-13.22,1.27-10.57-2.61-17.15-12.83-19.18-21.57-.79-3.38-3.24-13.88,3-19.45,5.47-4.92,14-2.68,16.23-2.11C148.11,45.17,155.79,54.19,157.42,64.15Z" transform="translate(-33.07 -38.1)"/><ellipse class="cls-47" cx="116.82" cy="29.81" rx="0.61" ry="0.7"/><path class="cls-48" d="M79.84,174c-1,.71-7.34,5.08-14.24,3-8.68-2.59-11.32-13.29-12.11-16.51-2.06-8.36-1.8-23,8-28.49a17.88,17.88,0,0,1,15.79-.39C84.73,135,87,142.56,87.86,145.5,90.62,154.74,88.85,167.74,79.84,174Z" transform="translate(-33.07 -38.1)"/><ellipse class="cls-49" cx="67.33" cy="138.75" rx="0.61" ry="0.73" transform="translate(-82.98 0.44) rotate(-23.59)"/><path class="cls-50" d="M234.24,163.33c-4.36,8.8-6.64,13.25-11,15.69-1.59.9-6.33,3.26-11.72,2.16-9.29-1.9-17.09-13.35-15.08-24.61,2.08-11.59,13.59-17.6,22.68-17.84,7.85-.21,18.09,3.78,19.86,11C239.67,152.39,237.85,156.08,234.24,163.33Z" transform="translate(-33.07 -38.1)"/><ellipse class="cls-51" cx="178.13" cy="106.39" rx="0.61" ry="0.7"/><path class="cls-52" d="M205.57,220.25c-2.11,1.81-6.46,5.57-11.8,4.95-7.76-.9-11.74-11.27-14.55-18.43-2.49-6.36-4.3-11-2.6-16.67.11-.38,2.79-8.89,10.62-11.82,9.69-3.61,21.91,3.32,26.35,13.48C218.55,203.11,211.94,214.76,205.57,220.25Z" transform="translate(-33.07 -38.1)"/><ellipse class="cls-53" cx="203.14" cy="190.66" rx="0.61" ry="0.73" transform="translate(-92.4 59.14) rotate(-23.59)"/><ellipse class="cls-54" cx="181.83" cy="87.05" rx="19.18" ry="21.56"/><ellipse class="cls-55" cx="190.91" cy="95.65" rx="0.61" ry="0.7"/><path class="cls-56" d="M224.48,212.27c-4.09,3.27-6.13,4.9-8.94,5-8.36.24-14.52-12.48-17.41-18.46-2.77-5.73-4.48-9.23-3.77-14a18.7,18.7,0,0,1,11.79-14.47c10.59-3.8,21.84,5.34,26.35,13.48,1,1.85,4.05,7.3,2.81,13.9C234,204.64,228.72,208.87,224.48,212.27Z" transform="translate(-33.07 -38.1)"/><ellipse class="cls-57" cx="222.57" cy="182.51" rx="0.61" ry="0.73" transform="translate(-87.52 66.24) rotate(-23.59)"/><path class="cls-58" d="M199.09,204.43c.25,1.48,2.26,14.89-5.94,20.3-5,3.29-11.06,1.8-13.23,1.26-10.56-2.6-17.14-12.82-19.18-21.56-.79-3.38-3.24-13.88,2.95-19.45,5.47-4.92,14-2.68,16.23-2.11C189.78,185.44,197.46,194.47,199.09,204.43Z" transform="translate(-33.07 -38.1)"/><ellipse class="cls-59" cx="158.49" cy="170.09" rx="0.61" ry="0.7"/><path class="cls-60" d="M251,195.27c-1,.72-7.34,5.09-14.24,3C228,195.71,225.39,185,224.6,181.8c-2.06-8.36-1.8-23,8-28.49a17.92,17.92,0,0,1,15.79-.4c7.43,3.42,9.68,10.93,10.56,13.88C261.74,176,260,189,251,195.27Z" transform="translate(-33.07 -38.1)"/><ellipse class="cls-61" cx="238.44" cy="160.03" rx="0.61" ry="0.73" transform="translate(-77.2 70.71) rotate(-23.59)"/></svg>