<svg id="Warstwa_1" data-name="Warstwa 1" xmlns="http://www.w3.org/2000/svg" viewBox="0 0 292.43 292.43"><defs><style>.cls-1{fill:#3f51b5;}.cls-10,.cls-11,.cls-2,.cls-3,.cls-5,.cls-7,.cls-9{fill:none;}.cls-2,.cls-3,.cls-4,.cls-6,.cls-7,.cls-8,.cls-9{stroke:#1d1d1b;}.cls-10,.cls-11,.cls-2,.cls-3,.cls-4,.cls-6,.cls-7,.cls-8,.cls-9{stroke-miterlimit:10;}.cls-2{stroke-width:6.69px;}.cls-3{stroke-width:6px;}.cls-4,.cls-6,.cls-8{fill:#fff;}.cls-4{stroke-width:8.18px;}.cls-6{stroke-width:7.34px;}.cls-10,.cls-7,.cls-8,.cls-9{stroke-linecap:round;}.cls-7{stroke-width:5px;}.cls-8,.cls-9{stroke-width:6.43px;}.cls-10,.cls-11{stroke:#3f51b5;}.cls-10{stroke-width:10px;}.cls-11{stroke-width:12.21px;}</style></defs><path class="cls-1" d="M369.65,378c1.51,2.25-2,7.36-9.08,17.47a155.38,155.38,0,0,1-13.15,16.87,133.51,133.51,0,0,1-19.71,18.27,122.15,122.15,0,0,1-24.35,14.23c-12.45,5.35-21.59,9.27-33.95,8.34-5.75-.44-21.5-2.63-33.52-15.75-3.51-3.82-13.06-14.26-12.2-27.26.63-9.45,6.54-16.81,3.51-19.69-1.41-1.35-3-.08-7.63-.42-10-.76-16.39-7.87-17-8.57-1.95-2.23-5.51-6.28-5.1-11.91.08-1.13.62-6.47,4.5-8.92,4.43-2.79,8.93.87,11.9-2,2.19-2.08.29-4.56,2.71-8,2.92-4.09,8.53-4.5,8.87-4.52,4.61-.27,6.36.47,12.08,1.47a59.94,59.94,0,0,0,11.21,1.18c1.95.08,9.24.52,13.73,5.26,5.71,6,4.62,16.7,3.94,23.38-.63,6.17-1.65,9.65-.55,10.15,1.67.76,4.65-7.27,12.86-14.29,10.08-8.63,21.63-10.22,28.11-11.11,7.35-1,10,.11,11,.34,5.36,1.24,5.6,6,12,10.54,4.42,3.15,8.67,4,13.06,4.87C358.08,381,367.37,374.52,369.65,378Z" transform="translate(-150.21 -213.34)"/><line class="cls-2" x1="129.35" y1="173.66" x2="129.35" y2="173.66"/><path class="cls-2" d="M207.68,379.12" transform="translate(-150.21 -213.34)"/><path class="cls-3" d="M196.07,337.06" transform="translate(-150.21 -213.34)"/><path class="cls-2" d="M287.43,420.78" transform="translate(-150.21 -213.34)"/><path class="cls-4" d="M250.35,398.43" transform="translate(-150.21 -213.34)"/><path class="cls-4" d="M249.59,399.7" transform="translate(-150.21 -213.34)"/><path class="cls-5" d="M214.59,361.66c-2-2.61-1.17-4.74,3.84-9.9,4.56-4.71,18.11-5.14,21,1.66" transform="translate(-150.21 -213.34)"/><path class="cls-5" d="M236.59,355a21.93,21.93,0,0,1,13-3.66c2,.07,6.66.21,10.37,3,9.29,6.92,5.74,24.83,5,28.41a49,49,0,0,1-13.89,25" transform="translate(-150.21 -213.34)"/><path class="cls-1" d="M315.48,365.53a4.19,4.19,0,0,1-2.05-.85c-2.32-1.67-3.56-5.1-3.74-5.6a24.69,24.69,0,0,0-4.29-8,13,13,0,0,0-4.49-3.6c-1.87-.81-3.74,1-4.47,1.91-2.47,3.14.14,11,6.1,19.62" transform="translate(-150.21 -213.34)"/><path class="cls-5" d="M370.23,380.39c-8.42,15.93-29.31,50.09-67,66.62-10.26,4.51-25.12,10.78-42.75,6.44-4.21-1-19-4.92-28.62-18.63-15.89-22.71-2.52-51.07-1.94-52.24" transform="translate(-150.21 -213.34)"/><path class="cls-5" d="M224.44,393.09c-6.8.07-19.82-2.58-26.54-14-2-3.41-2.67-8.25,2.34-15,4.56-6.16,18.11-6.71,21,2.18" transform="translate(-150.21 -213.34)"/><path class="cls-6" d="M349.35,331.63" transform="translate(-150.21 -213.34)"/><path class="cls-6" d="M273.15,452.62" transform="translate(-150.21 -213.34)"/><path class="cls-7" d="M238.67,311.2" transform="translate(-150.21 -213.34)"/><path class="cls-8" d="M268.82,331.06" transform="translate(-150.21 -213.34)"/><path class="cls-9" d="M116.62,181.29" transform="translate(-150.21 -213.34)"/><path class="cls-1" d="M392.36,355.41c2.21-4.48,14.37-30.65-1.56-51.57a43.77,43.77,0,0,0-41.31-16.46c-18.28,3-27.79,17.29-30.13,20.81a52.74,52.74,0,0,0-9.17,30.14c.08,4.9.46,17.46,9.48,28.88,1.21,1.54,15.1,18.55,36.26,16.86C379.1,382.23,390.27,359.63,392.36,355.41Z" transform="translate(-150.21 -213.34)"/><path class="cls-10" d="M279.57,384.19A158.82,158.82,0,0,1,271,357.76c-4.87-21.31-1.63-27.58-7.21-39.11-7.05-14.59-16.76-13.33-27.34-27-6.46-8.38-13.14-22.13-12.84-45.34" transform="translate(-150.21 -213.34)"/><path class="cls-1" d="M318.39,370.47c-3.51-.09-12.21-.65-19.05-5.17-3.86-2.54-5-4.92-5.33-5.84a11.52,11.52,0,0,1-.6-6.18,18.7,18.7,0,0,0-1.94-9.65c-.87-1.69-1.71-3.27-3.56-4.23a7.21,7.21,0,0,0-7.53.5c-1.79,1.45-2,4-2.46,8.89a40.43,40.43,0,0,0-.05,8.26c.5,4.89,1,9.76,4.45,14.13a24.81,24.81,0,0,0,6.67,5.59,33.41,33.41,0,0,0,5.31,2.6A65.5,65.5,0,0,0,308,383.7a59.49,59.49,0,0,0,13.27,1" transform="translate(-150.21 -213.34)"/><circle class="cls-11" cx="146.21" cy="146.21" r="140.11"/></svg>