<svg id="Warstwa_1" data-name="Warstwa 1" xmlns="http://www.w3.org/2000/svg" xmlns:xlink="http://www.w3.org/1999/xlink" viewBox="0 0 137.73 165.73"><defs><style>.cls-1{fill:url(#Gradient_bez_nazwy_34);}.cls-2{fill:url(#Gradient_bez_nazwy_8);}.cls-3{fill:url(#Gradient_bez_nazwy_12);}.cls-4{fill:url(#Gradient_bez_nazwy_40);}.cls-5{fill:url(#Gradient_bez_nazwy_4);}</style><radialGradient id="Gradient_bez_nazwy_34" cx="130.14" cy="98.47" fx="120.24393416194162" r="96.65" gradientUnits="userSpaceOnUse"><stop offset="0" stop-color="#ecc7c3"/><stop offset="0.08" stop-color="#ffc0b3"/><stop offset="0.66" stop-color="#d38276"/><stop offset="0.98" stop-color="#d48076"/></radialGradient><radialGradient id="Gradient_bez_nazwy_8" cx="141.5" cy="143.39" r="40.52" gradientUnits="userSpaceOnUse"><stop offset="0" stop-color="#d9948a"/><stop offset="0.17" stop-color="#da918b"/><stop offset="0.73" stop-color="#d47f77"/></radialGradient><radialGradient id="Gradient_bez_nazwy_12" cx="149.69" cy="183.16" fx="140.12152798868274" r="43.46" gradientUnits="userSpaceOnUse"><stop offset="0" stop-color="#e0a39c"/><stop offset="0.17" stop-color="#d38276"/><stop offset="0.59" stop-color="#ce6c63"/><stop offset="0.83" stop-color="#d27e72"/></radialGradient><radialGradient id="Gradient_bez_nazwy_40" cx="166" cy="174.48" r="5.03" gradientTransform="translate(-7.84 -42.76) scale(0.95 0.88)" gradientUnits="userSpaceOnUse"><stop offset="0" stop-color="#ecc7c3"/><stop offset="0.12" stop-color="#ffc0b3"/></radialGradient><radialGradient id="Gradient_bez_nazwy_4" cx="153.42" cy="115.8" r="6.05" gradientUnits="userSpaceOnUse"><stop offset="0" stop-color="#9b3b30"/><stop offset="1" stop-color="#d48076"/></radialGradient></defs><path class="cls-1" d="M147.7,211.71c-8.75,3.31-20.62-10.64-21.29-11.43-7.47-8.8-8.6-19.26-9.26-25.42-1-9.05.53-14.35.2-14.39-.72-.09-10,23.67-.79,43.95a39.94,39.94,0,0,0,16.95,18.73,38.91,38.91,0,0,0,21.87,4.53c11.94-1,19.73-7.33,28.19-14.19,6.16-5,16.78-13.82,23.06-29.17,3.63-8.88,4.12-15.8,4.93-27.2C213,137.47,210,122.62,208,113c-3.55-17.22-5.29-25.84-11.83-32.72s-14.35-9.69-23.88-13.16c-7.12-2.59-14.94-5.36-25.39-5-6.32.24-14.56.55-22.61,6.18-1,.71-13.09,9.46-14.25,24.37-.52,6.73,1.7,11.84,6.11,22.08,4.26,9.89,6.78,15.73,13,18.92,4,2,8.24,1.77,16.75,1.38,13-.61,18.66-3.21,19.17-2,.86,2-13.6,14.45-32.31,15.91-8.11.64-14.77-1.22-27.77-5a242.71,242.71,0,0,1-30.83-11.2,36.8,36.8,0,0,1,5.46,14.85c.86,6.64-.57,11.1-1.67,17.92a108.91,108.91,0,0,0-1.06,24.61,104.43,104.43,0,0,1,34-13.83c14.12-3,33.39-7,41.53,3.26C159.94,189,156.36,208.44,147.7,211.71Z" transform="translate(-74.18 -62.09)"/><path class="cls-2" d="M175.47,130.81c6.6.54,10.11,8.76,10.64,10.05.9,2.2,3.59,8.82-.2,14.39-2,3-5.74,5.48-9.65,5.32-4.4-.18-6-3.4-10.45-5.72-1.1-.57-10.19-4.45-17.94-1-4.22,1.89-4.69,4.47-7.68,4.33-3.82-.18-7.07-4.58-8.08-8.47-.17-.63-1.64-6.74,2.56-11a9.87,9.87,0,0,1,6.5-3.15c4-.13,5.1,3,10.84,5.32,3.32,1.36,7.84,3.22,11.24,1.38,4.31-2.34,3.12-8.63,8.28-10.84A8.16,8.16,0,0,1,175.47,130.81Z" transform="translate(-74.18 -62.09)"/><path class="cls-3" d="M157.92,216.47c3.9,3.9,13,1.33,17.93-1.58.59-.34,8.55-5.14,9.07-12a9.73,9.73,0,0,0-.39-3.55,10.32,10.32,0,0,0-5.52-5.91c-3.82-1.74-5.31,1.12-9.27.19C163,192,159.3,182.27,158.9,181.19c-1.17-3.18-.88-4.55-2.56-6.11-3.43-3.2-9.23-1.7-9.66-1.58a13.65,13.65,0,0,0-7.48,5.72c-1.32,1.82-3.34,4.61-3,8.47,0,.29.54,4.84,4.14,7.29,1.83,1.26,2.89.89,5.52,1.78a18.72,18.72,0,0,1,8.27,5.71C158.5,207.93,154.47,213,157.92,216.47Z" transform="translate(-74.18 -62.09)"/><path class="cls-4" d="M162.5,114.24c.43,5-4.21,9.71-9.55,9.74s-9.24-4.49-9.62-8.93a8.1,8.1,0,0,1,9.62-8.92C156.68,106.53,162.07,109.22,162.5,114.24Z" transform="translate(-74.18 -62.09)"/><path class="cls-5" d="M158.46,115.55a3.85,3.85,0,0,1-1.2,2.71A5.58,5.58,0,0,1,153.5,120c-2.45.08-5.61-1.61-5.74-4.17s3.2-4.92,5.74-4.68a5.61,5.61,0,0,1,2.86,1.32C157.14,113.05,158.4,114,158.46,115.55Z" transform="translate(-74.18 -62.09)"/></svg>