<svg id="Warstwa_1" data-name="Warstwa 1" xmlns="http://www.w3.org/2000/svg" xmlns:xlink="http://www.w3.org/1999/xlink" viewBox="0 0 191.29 229.29"><defs><style>.cls-1{fill:url(#Gradient_bez_nazwy_3);}.cls-2{fill:url(#Gradient_bez_nazwy_50);}.cls-3{fill:url(#Gradient_bez_nazwy_48);}.cls-4{fill:url(#Gradient_bez_nazwy_40);}.cls-5{fill:url(#Gradient_bez_nazwy_46);}</style><radialGradient id="Gradient_bez_nazwy_3" cx="92.98" cy="147.64" r="67.85" gradientUnits="userSpaceOnUse"><stop offset="0" stop-color="#ffc0b3"/><stop offset="0.42" stop-color="#da9289"/><stop offset="0.66" stop-color="#d38276"/><stop offset="0.95" stop-color="#ce6c63"/></radialGradient><radialGradient id="Gradient_bez_nazwy_50" cx="173.4" cy="149.84" r="19.72" gradientUnits="userSpaceOnUse"><stop offset="0" stop-color="#e0a39c"/><stop offset="1" stop-color="#d48076"/></radialGradient><radialGradient id="Gradient_bez_nazwy_48" cx="161.63" cy="102.68" fx="122.29043190349665" fy="67.14155285669088" r="140.58" gradientUnits="userSpaceOnUse"><stop offset="0" stop-color="#ecc7c3"/><stop offset="0.03" stop-color="#ffc0b3"/><stop offset="0.66" stop-color="#d38276"/><stop offset="0.95" stop-color="#ce6c63"/></radialGradient><radialGradient id="Gradient_bez_nazwy_40" cx="179.92" cy="152.31" r="6.55" gradientTransform="translate(-7.84 -42.76) scale(0.95 0.88)" gradientUnits="userSpaceOnUse"><stop offset="0" stop-color="#ecc7c3"/><stop offset="0.12" stop-color="#ffc0b3"/></radialGradient><radialGradient id="Gradient_bez_nazwy_46" cx="167.5" cy="97.35" r="7.41" gradientUnits="userSpaceOnUse"><stop offset="0" stop-color="#9b3b30"/><stop offset="0.52" stop-color="#d48076"/></radialGradient></defs><path class="cls-1" d="M183.22,137.85c-7.72-8.1-22.49,7.11-53.5,2.15-14.35-2.3-27.07-8.06-37.53-12.86C67.78,116,63,109.08,56.54,111.8c-6.09,2.56-8.94,11.6-10.37,46.23-.65,15.78-1.06,38.21.21,65.51,5.15,1.88,12.87,3.74,20.69,1.09,10.61-3.6,10.58-11.84,22.64-22.24,16.45-14.19,36.42-16,40.21-16.37a95.44,95.44,0,0,1,19.07.21c8.62,1.43,10.13,2.37,13.26,2.07C177.52,186.81,193.55,148.69,183.22,137.85Z" transform="translate(-45.55 -25.63)"/><path class="cls-2" d="M189,124.66c-16.62-.23-31.29,21.83-34.2,40.84-4.26,27.82,15.52,56.77,25.5,55.14,3.16-.52,4.45-4,11-23.43,16.47-49,18.78-58.37,13.06-65.51C198.92,124.93,189.87,124.67,189,124.66Z" transform="translate(-45.55 -25.63)"/><path class="cls-3" d="M154,25.94c.55-.08,1.16-.15,1.86-.2,9.11-.63,19.12,1.44,33.63,8.64,15.29,7.6,22.93,11.39,26.38,17.72,3.94,7.2,1.32,10.57,6.42,21.8,3.94,8.66,7.43,10.38,10.55,16.5,4.66,9.13,4.71,18,3.07,35.1-2.75,28.65-4.12,43-10,61.39-7.34,23.09-11.36,35.72-24,47.66a75,75,0,0,1-34.83,18.37c-5.8,1.3-22.86,4.9-41.33-2.68-4.15-1.7-19-7.77-24.49-21.05-.87-2.09-2.62-7-1.53-7.65s4.69,4.25,8.42,7.65c12.33,11.28,34.09,12.64,49.24,5.66,7.33-3.38,13.07-8.66,12.28-10.55-1.06-2.52-12.82,3.1-25.13-2.3-2.13-.94-9.29-4.08-9.59-8.83-.41-6.23,11.44-11.76,17.07-14.38,11.09-5.18,14.82-3.46,23.21-8.64,7.45-4.59,14.23-11.91,12.85-14.38-2.2-4-22.77,9.18-37.5.5-1.53-.91-6.37-3.76-7.38-9a12.86,12.86,0,0,1,3.64-11.12c5.95-5.93,13.09-.41,26.09-5.18,3.13-1.15,10.44-4,14.77-11.13.33-.54,5.51-9.32,2.34-13.26-2.85-3.55-10.11-.3-21.81,1.53-7.3,1.14-26,4.07-40.95-4.59-1.81-1-14.81-8.86-17.6-23-.8-4-.59-7.68,2.29-18.76,6.37-24.44,9.56-36.67,18.56-44.78A46,46,0,0,1,154,25.94Z" transform="translate(-45.55 -25.63)"/><path class="cls-4" d="M180.08,96.2c.16,6.35-6.81,11.93-13.67,11.58-6.21-.33-11.67-5.5-12.18-11.3,0-.5-.4-5.65,3.46-9,3.22-2.78,7.22-2.44,8.72-2.31C171.78,85.64,179.91,89.46,180.08,96.2Z" transform="translate(-45.55 -25.63)"/><path class="cls-5" d="M173.4,97.1a5.38,5.38,0,0,1-.51,3.39c-1.6,2.62-5.56,2.23-5.77,2.21-2.58-.29-6.29-2.24-6.29-5.6S165,92,167.12,91.5a5.21,5.21,0,0,1,3.7.28C173.08,93,173.32,96.15,173.4,97.1Z" transform="translate(-45.55 -25.63)"/></svg>