<?xml version="1.0" standalone="no"?>
<!DOCTYPE svg PUBLIC "-//W3C//DTD SVG 20010904//EN"
 "http://www.w3.org/TR/2001/REC-SVG-20010904/DTD/svg10.dtd">
<svg version="1.0" xmlns="http://www.w3.org/2000/svg"
 width="118.000000pt" height="118.000000pt" viewBox="0 0 118.000000 118.000000"
 preserveAspectRatio="xMidYMid meet">
<metadata>
Created by potrace 1.11, written by Peter Selinger 2001-2013
</metadata>
<g transform="translate(0.000000,118.000000) scale(0.100000,-0.100000)"
fill="#000000" stroke="none">
<path d="M848 1064 c-57 -17 -126 -84 -159 -151 -30 -62 -38 -173 -16 -226 22
-50 4 -56 -24 -8 -24 43 -46 58 -63 41 -14 -14 -26 -13 -26 4 0 8 -8 24 -19
37 -16 20 -22 22 -44 12 -22 -10 -25 -18 -25 -70 -1 -32 4 -70 9 -84 9 -23 5
-31 -34 -74 l-45 -48 5 70 c9 118 -15 142 -157 159 -105 13 -140 4 -140 -36 0
-22 -25 -44 -40 -35 -17 11 -49 -5 -56 -28 -12 -33 -11 -39 4 -72 20 -44 70
-75 120 -75 36 0 42 -3 42 -21 0 -11 -5 -29 -11 -41 -17 -31 -13 -102 9 -144
65 -126 211 -189 347 -149 172 50 320 163 434 330 26 39 74 97 107 130 124
124 145 307 46 412 -64 69 -172 96 -264 67z m-268 -383 c0 -5 3 -18 6 -28 5
-16 4 -16 -10 1 -18 23 -20 36 -6 36 6 0 10 -4 10 -9z"/>
</g>
</svg>
